<?xml version="1.0" encoding="iso-8859-1"?>
<!-- Uploaded to: SVG Repo, www.svgrepo.com, Generator: SVG Repo Mixer Tools -->
<svg version="1.1" id="Layer_1" xmlns="http://www.w3.org/2000/svg" xmlns:xlink="http://www.w3.org/1999/xlink" 
	 viewBox="0 0 512 512" xml:space="preserve">
<path style="fill:#F7DC4D;" d="M48.279,193.547v301.835h149.137V354.259c0-7.071,5.732-12.803,12.803-12.803h91.54
	c7.071,0,12.803,5.732,12.803,12.803v141.123H463.7V193.547H48.279z"/>
<path style="fill:#FF8600;" d="M255.99,193.547v147.909h45.77c7.071,0,12.803,5.732,12.803,12.803v141.123H463.7V193.547H255.99z"/>
<path style="fill:#C27526;" d="M197.416,512H48.279c-9.177,0-16.618-7.44-16.618-16.618c0-9.177,7.44-16.618,16.618-16.618h149.137
	c9.177,0,16.618,7.44,16.618,16.618C214.033,504.56,206.593,512,197.416,512z"/>
<path style="fill:#7E4F1F;" d="M463.7,512H314.563c-9.177,0-16.618-7.44-16.618-16.618c0-9.177,7.44-16.618,16.618-16.618H463.7
	c9.177,0,16.618,7.44,16.618,16.618C480.318,504.56,472.878,512,463.7,512z"/>
<g>
	<path style="fill:#C27526;" d="M156.957,401.163H92.703c-11.671,0-21.133-9.462-21.133-21.133v-97.455
		c0-11.671,9.462-21.133,21.133-21.133h64.254c11.671,0,21.133,9.462,21.133,21.133v97.455
		C178.09,391.702,168.629,401.163,156.957,401.163z"/>
	<path style="fill:#C27526;" d="M421.206,401.163h-64.254c-11.671,0-21.133-9.462-21.133-21.133v-97.455
		c0-11.671,9.462-21.133,21.133-21.133h64.254c11.671,0,21.133,9.462,21.133,21.133v97.455
		C442.34,391.702,432.877,401.163,421.206,401.163z"/>
</g>
<path style="fill:#FFFFFF;" d="M152.408,385.152H93.984c-6.098,0-11.04-4.943-11.04-11.04v-86.858c0-6.098,4.943-11.04,11.04-11.04
	h58.423c6.098,0,11.04,4.943,11.04,11.04v86.858C163.448,380.21,158.506,385.152,152.408,385.152z"/>
<path style="fill:#E61F00;" d="M503.942,207.914L266.826,4.018c-6.232-5.358-15.439-5.358-21.671,0L7.512,208.365
	c-5.269,4.531-7.162,11.862-4.746,18.378c2.417,6.515,8.632,10.839,15.581,10.839h475.285c0.009-0.001,0.016-0.001,0.022,0
	c9.178,0,16.618-7.44,16.618-16.618C510.272,215.672,507.797,210.956,503.942,207.914z"/>
<path style="fill:#9D2217;" d="M503.942,207.914L266.826,4.018C263.709,1.339,259.85,0,255.99,0v237.582h237.642
	c0.009-0.001,0.016-0.001,0.022,0c9.178,0,16.618-7.44,16.618-16.618C510.272,215.672,507.797,210.956,503.942,207.914z"/>
<rect x="82.944" y="331.235" style="fill:#C27526;" width="80.507" height="33.235"/>
<path style="fill:#FFFFFF;" d="M418.291,385.152h-58.423c-6.098,0-11.04-4.943-11.04-11.04v-86.858c0-6.098,4.943-11.04,11.04-11.04
	h58.423c6.098,0,11.04,4.943,11.04,11.04v86.858C429.331,380.21,424.389,385.152,418.291,385.152z"/>
<rect x="348.827" y="331.235" style="fill:#C27526;" width="80.507" height="33.235"/>
<rect x="48.279" y="237.578" style="fill:#FF8600;" width="415.42" height="18.466"/>
<rect x="255.801" y="237.578" style="fill:#BA6200;" width="207.898" height="18.466"/>
</svg>